<svg width="68" height="69" viewBox="0 0 68 69" fill="none" xmlns="http://www.w3.org/2000/svg">
<path d="M12.76 43.0184C10.2394 43.0184 7.7755 43.7752 5.67975 45.1934C3.58402 46.6114 1.95057 48.627 0.986013 50.9851C0.0214469 53.3434 -0.230927 55.9382 0.260804 58.4417C0.752535 60.945 1.96628 63.2446 3.74858 65.0495C5.53086 66.8543 7.80163 68.0835 10.2737 68.5815C12.7458 69.0794 15.3082 68.8238 17.6368 67.8471C19.9655 66.8703 21.956 65.2162 23.3562 63.0939C24.7566 60.9716 25.504 58.4764 25.504 55.9239C25.504 52.5012 24.1614 49.2185 21.7714 46.7984C19.3814 44.378 16.1399 43.0184 12.76 43.0184ZM12.76 63.0936C11.3597 63.0936 9.99081 62.6732 8.82651 61.8854C7.66221 61.0975 6.75475 59.9777 6.21888 58.6676C5.68301 57.3575 5.5428 55.9159 5.81598 54.5252C6.08916 53.1344 6.76347 51.8568 7.75364 50.8542C8.74379 49.8515 10.0053 49.1686 11.3787 48.8919C12.7521 48.6153 14.1756 48.7573 15.4693 49.2999C16.7631 49.8426 17.8689 50.7616 18.6467 51.9406C19.4247 53.1197 19.84 54.5059 19.84 55.9239C19.8306 57.8225 19.0818 59.6407 17.7561 60.9833C16.4302 62.3259 14.6348 63.0842 12.76 63.0936ZM0.830133 26.6356L5.92774 21.5092L0.830133 16.3828C0.378532 15.8257 0.147746 15.1182 0.182665 14.3983C0.217585 13.6782 0.515711 12.9971 1.01906 12.4874C1.52241 11.9777 2.19498 11.6758 2.90596 11.6404C3.61695 11.6051 4.31549 11.8388 4.86575 12.2961L9.92796 17.4583L14.9901 12.2961C15.5404 11.8388 16.239 11.6051 16.9499 11.6404C17.661 11.6758 18.3335 11.9777 18.8368 12.4874C19.3402 12.9971 19.6383 13.6782 19.6732 14.3983C19.7082 15.1182 19.4774 15.8257 19.0257 16.3828L13.9282 21.5092L19.0257 26.6356C19.5576 27.1792 19.8559 27.9136 19.8559 28.6789C19.8559 29.4443 19.5576 30.1785 19.0257 30.7223C18.4845 31.2523 17.7609 31.5487 17.0079 31.5487C16.2551 31.5487 15.5315 31.2523 14.9901 30.7223L9.92796 25.5601L4.86575 30.7223C4.32443 31.2523 3.60092 31.5487 2.84794 31.5487C2.09496 31.5487 1.37144 31.2523 0.830133 30.7223C0.298334 30.1785 0 29.4443 0 28.6789C0 27.9136 0.298334 27.1792 0.830133 26.6356ZM67.1698 61.0503C67.7016 61.5939 68 62.3284 68 63.0936C68 63.859 67.7016 64.5933 67.1698 65.137C66.6286 65.667 65.905 65.9634 65.1521 65.9634C64.3991 65.9634 63.6756 65.667 63.1343 65.137L58.072 59.9748L53.0099 65.137C52.4685 65.667 51.7449 65.9634 50.9921 65.9634C50.2391 65.9634 49.5155 65.667 48.9743 65.137C48.4425 64.5933 48.1441 63.859 48.1441 63.0936C48.1441 62.3284 48.4425 61.5939 48.9743 61.0503L54.0718 55.9239L48.9743 50.7975C48.5226 50.2404 48.2918 49.533 48.3268 48.813C48.3617 48.0929 48.6598 47.4119 49.1632 46.9022C49.6665 46.3924 50.3391 46.0905 51.0501 46.0551C51.761 46.0198 52.4596 46.2535 53.0099 46.7108L58.072 51.873L63.1343 46.7108C63.6845 46.2535 64.3831 46.0198 65.094 46.0551C65.805 46.0905 66.4776 46.3924 66.981 46.9022C67.4843 47.4119 67.7824 48.0929 67.8174 48.813C67.8522 49.533 67.6214 50.2404 67.1698 50.7975L62.0722 55.9239L67.1698 61.0503ZM51.169 28.9658C48.9743 36.9958 42.2129 43.9146 34.6726 45.8145L34 45.8862C33.3641 45.8886 32.746 45.6741 32.2452 45.2775C31.7443 44.8808 31.3898 44.3251 31.2388 43.6995C31.0674 42.9584 31.1902 42.1787 31.5809 41.5282C31.9714 40.8779 32.5986 40.4089 33.3274 40.2221C38.8498 38.8241 44.0536 33.4468 45.7174 27.4601C46.8148 23.3374 46.8502 17.0639 40.4782 10.6471L39.664 9.78668V17.2074C39.664 17.9679 39.3656 18.6974 38.8345 19.2352C38.3034 19.773 37.583 20.0752 36.832 20.0752C36.0809 20.0752 35.3606 19.773 34.8295 19.2352C34.2984 18.6974 34 17.9679 34 17.2074V2.86789C34 2.10728 34.2984 1.37783 34.8295 0.839987C35.3606 0.302153 36.0809 0 36.832 0H50.9921C51.7431 0 52.4635 0.302153 52.9946 0.839987C53.5257 1.37783 53.8241 2.10728 53.8241 2.86789C53.8241 3.62851 53.5257 4.35796 52.9946 4.8958C52.4635 5.43363 51.7431 5.73579 50.9921 5.73579H43.6642L44.5138 6.5603C50.9567 13.1206 53.3284 21.079 51.169 28.9658Z" fill="white"/>
</svg>
