<svg width="71" height="69" viewBox="0 0 71 69" fill="none" xmlns="http://www.w3.org/2000/svg">
<path d="M9.94364 0.0193375L61.3698 0.0194103C64.2925 0.0194103 65.711 -0.350713 69.1621 2.1415C71.2287 4.21119 70.9056 7.01831 70.9056 9.94532V39.3753C70.9056 42.3023 71.2287 45.1095 69.1621 47.1792C67.0954 49.2489 64.2925 49.2458 61.3698 49.2458H35.2857L12.1403 68.0992C11.594 68.5074 10.9451 68.7553 10.2662 68.8152C9.58729 68.8751 8.90511 68.7447 8.29596 68.4386C7.68682 68.1323 7.17475 67.6625 6.81701 67.0815C6.45928 66.5005 6.27 65.8313 6.27034 65.1488V50.4116C4.3219 50.4116 2.45326 49.6365 1.0755 48.2567C-0.30225 46.877 0.0369161 45.0055 0.0369161 43.0542L0.036858 9.94532C0.036858 7.01831 0.0847567 4.21119 2.1514 2.1415C4.21802 0.0717884 7.02098 0.0193375 9.94364 0.0193375ZM33.372 43.0542H61.3698C62.3442 43.0542 63.2785 42.6665 63.9673 41.9767C64.6561 41.2868 65.0432 40.3511 65.0432 39.3753V9.94532C65.0432 8.96965 64.6561 8.03394 63.9673 7.34405C63.2785 6.65415 62.3442 6.26656 61.3698 6.26656H9.94364C8.96942 6.26656 8.0351 6.65415 7.34622 7.34405C6.65735 8.03394 6.27034 8.96965 6.27034 9.94532V39.3753C6.27034 40.3511 6.65735 41.2868 7.34622 41.9767C8.0351 42.6665 8.93426 43.6977 9.90849 43.6977C11.0216 43.6977 11.5924 44.1144 12.2812 44.8042C12.7241 45.2477 12.6523 47.2809 12.6523 48.2567V58.1286L33.372 43.0542ZM46.6767 32.0179C44.7282 32.0179 42.8596 31.2428 41.4818 29.8629C40.1041 28.483 39.33 26.6116 39.33 24.6604C39.33 22.709 40.1041 20.8376 41.4818 19.4577C42.8596 18.078 44.7282 17.3028 46.6767 17.3028C48.625 17.3028 50.4937 18.078 51.8715 19.4577C53.2492 20.8376 54.0233 22.709 54.0233 24.6604C54.0233 26.6116 53.2492 28.483 51.8715 29.8629C50.4937 31.2428 48.625 32.0179 46.6767 32.0179ZM24.6369 32.0179C22.6884 32.0179 20.8198 31.2428 19.442 29.8629C18.0643 28.483 17.2902 26.6116 17.2902 24.6604C17.2902 22.709 18.0643 20.8376 19.442 19.4577C20.8198 18.078 22.6884 17.3028 24.6369 17.3028C26.5852 17.3028 28.4539 18.078 29.8317 19.4577C31.2095 20.8376 31.9835 22.709 31.9835 24.6604C31.9835 26.6116 31.2095 28.483 29.8317 29.8629C28.4539 31.2428 26.5852 32.0179 24.6369 32.0179Z" fill="#1A222D"/>
<path d="M9.94336 5.7666C8.83638 5.76668 7.77471 6.20753 6.99219 6.99121C6.20985 7.77489 5.77051 8.83743 5.77051 9.94531V39.375C5.77051 40.4831 6.20966 41.5464 6.99219 42.3301C7.31662 42.655 7.74673 43.1198 8.20898 43.4873C8.66856 43.8527 9.24893 44.1972 9.9082 44.1973C10.3967 44.1973 10.7374 44.288 11.0244 44.4365C11.3215 44.5903 11.5924 44.8214 11.9277 45.1572C11.9256 45.155 11.982 45.2336 12.0361 45.4951C12.0843 45.7278 12.1156 46.0258 12.1338 46.3584C12.1702 47.0259 12.1523 47.7516 12.1523 48.2568V59.1104L12.9463 58.5332L33.5342 43.5537H61.3701C62.4772 43.5536 63.5388 43.1137 64.3213 42.3301C65.1038 41.5464 65.543 40.4831 65.543 39.375V9.94531C65.543 8.8374 65.1036 7.77488 64.3213 6.99121C63.5388 6.20751 62.4772 5.76668 61.3701 5.7666H9.94336ZM24.6367 17.8027C26.452 17.8027 28.1934 18.5249 29.4775 19.8105C30.7616 21.0965 31.4833 22.8412 31.4834 24.6602C31.4834 26.479 30.7617 28.2237 29.4775 29.5098C28.1934 30.7956 26.4521 31.5176 24.6367 31.5176C22.8212 31.5175 21.0799 30.7957 19.7959 29.5098C18.5119 28.2237 17.79 26.479 17.79 24.6602C17.7901 22.8413 18.5121 21.0975 19.7959 19.8115C21.08 18.5257 22.8212 17.8028 24.6367 17.8027ZM46.6768 17.8027C48.492 17.8027 50.2335 18.5249 51.5176 19.8105C52.8015 21.0966 53.5234 22.8412 53.5234 24.6602C53.5234 26.479 52.8016 28.2237 51.5176 29.5098C50.2335 30.7957 48.4922 31.5176 46.6768 31.5176C44.8612 31.5176 43.12 30.7956 41.8359 29.5098C40.5519 28.2237 39.8301 26.479 39.8301 24.6602C39.8301 22.8413 40.5521 21.0975 41.8359 19.8115C43.1201 18.5256 44.8611 17.8027 46.6768 17.8027ZM6.77051 49.9111H6.27051C4.45497 49.9111 2.71371 49.1892 1.42969 47.9033C0.848592 47.3214 0.617449 46.6329 0.537109 45.8203C0.452646 44.9657 0.537109 44.0944 0.537109 43.0537V9.94531C0.537109 6.98198 0.606621 4.39647 2.50488 2.49512C4.40331 0.593854 6.98526 0.519536 9.94336 0.519531H61.3701C62.8848 0.51952 63.8849 0.429445 64.9746 0.636719C66.0242 0.83639 67.1656 1.32159 68.8359 2.52344C69.7491 3.45187 70.1472 4.546 70.3135 5.78809C70.4851 7.07046 70.4053 8.44111 70.4053 9.94531V39.375C70.4053 40.8791 70.4851 42.2499 70.3135 43.5322C70.1455 44.787 69.7417 45.8917 68.8086 46.8262C66.9128 48.7248 64.3388 48.7461 61.3701 48.7461H35.1074L34.9697 48.8584L11.8408 67.6982C11.369 68.0508 10.8089 68.2656 10.2227 68.3174C9.70963 68.3627 9.19397 68.282 8.7207 68.084L8.52051 67.9922C7.99431 67.7276 7.55228 67.3213 7.24316 66.8193C6.93409 66.3173 6.77028 65.7392 6.77051 65.1494V49.9111Z" stroke="black" stroke-opacity="0.1"/>
</svg>
