<svg width="69" height="69" viewBox="0 0 69 69" fill="none" xmlns="http://www.w3.org/2000/svg">
<path d="M15.0937 64.5276C17.9531 64.5276 20.6953 63.3945 22.7173 61.3777C24.7391 59.3607 25.875 56.6252 25.875 53.7731C25.875 50.9207 24.7391 48.1853 22.7173 46.1683C20.6953 44.1514 17.9531 43.0184 15.0937 43.0184C12.2344 43.0184 9.49212 44.1514 7.47025 46.1683C5.44837 48.1853 4.3125 50.9207 4.3125 53.7731C4.3125 56.6252 5.44837 59.3607 7.47025 61.3777C9.49212 63.3945 12.2344 64.5276 15.0937 64.5276ZM53.9063 25.811C56.7656 25.811 59.5078 24.678 61.5298 22.6611C63.5516 20.6441 64.6875 17.9087 64.6875 15.0564C64.6875 12.2041 63.5516 9.46866 61.5298 7.45178C59.5078 5.4349 56.7656 4.30184 53.9063 4.30184C51.0469 4.30184 48.3047 5.4349 46.2827 7.45178C44.2609 9.46866 43.125 12.2041 43.125 15.0564C43.125 17.9087 44.2609 20.6441 46.2827 22.6611C48.3047 24.678 51.0469 25.811 53.9063 25.811ZM53.9063 64.5276C51.0469 64.5276 48.3047 63.3945 46.2827 61.3777C44.2609 59.3607 43.125 56.6252 43.125 53.7731C43.125 50.9207 44.2609 48.1853 46.2827 46.1683C48.3047 44.1514 51.0469 43.0184 53.9063 43.0184C56.7656 43.0184 59.5078 44.1514 61.5298 46.1683C63.5516 48.1853 64.6875 50.9207 64.6875 53.7731C64.6875 56.6252 63.5516 59.3607 61.5298 61.3777C59.5078 63.3945 56.7656 64.5276 53.9063 64.5276ZM69 15.0564C69 19.0496 67.4098 22.8793 64.5792 25.703C61.7485 28.5266 57.9093 30.1129 53.9063 30.1129C49.9031 30.1129 46.064 28.5266 43.2333 25.703C40.4027 22.8793 38.8125 19.0496 38.8125 15.0564C38.8125 11.0632 40.4027 7.23356 43.2333 4.40993C46.064 1.5863 49.9031 0 53.9063 0C57.9093 0 61.7485 1.5863 64.5792 4.40993C67.4098 7.23356 69 11.0632 69 15.0564ZM30.1875 53.7731C30.1875 57.7662 28.5973 61.5959 25.7667 64.4195C22.936 67.2431 19.0969 68.8294 15.0937 68.8294C11.0906 68.8294 7.25149 67.2431 4.42086 64.4195C1.59023 61.5959 0 57.7662 0 53.7731C0 49.7798 1.59023 45.9501 4.42086 43.1265C7.25149 40.3028 11.0906 38.7165 15.0937 38.7165C19.0969 38.7165 22.936 40.3028 25.7667 43.1265C28.5973 45.9501 30.1875 49.7798 30.1875 53.7731ZM53.9063 68.8294C57.9093 68.8294 61.7485 67.2431 64.5792 64.4195C67.4098 61.5959 69 57.7662 69 53.7731C69 49.7798 67.4098 45.9501 64.5792 43.1265C61.7485 40.3028 57.9093 38.7165 53.9063 38.7165C49.9031 38.7165 46.064 40.3028 43.2333 43.1265C40.4027 45.9501 38.8125 49.7798 38.8125 53.7731C38.8125 57.7662 40.4027 61.5959 43.2333 64.4195C46.064 67.2431 49.9031 68.8294 53.9063 68.8294ZM15.0937 21.5092C14.2443 21.5092 13.4031 21.3422 12.6183 21.018C11.8334 20.6938 11.1203 20.2184 10.5197 19.6192C9.91897 19.0201 9.44249 18.3086 9.11741 17.5257C8.79232 16.743 8.625 15.9038 8.625 15.0564C8.625 14.209 8.79232 13.37 9.11741 12.5871C9.44249 11.8042 9.91897 11.0928 10.5197 10.4936C11.1203 9.89445 11.8334 9.41915 12.6183 9.09487C13.4031 8.77058 14.2443 8.60368 15.0937 8.60368C16.8094 8.60368 18.4547 9.28352 19.6678 10.4936C20.881 11.7038 21.5625 13.3451 21.5625 15.0564C21.5625 16.7679 20.881 18.4091 19.6678 19.6192C18.4547 20.8294 16.8094 21.5092 15.0937 21.5092ZM15.0937 30.1129C19.0969 30.1129 22.936 28.5266 25.7667 25.703C28.5973 22.8793 30.1875 19.0496 30.1875 15.0564C30.1875 11.0632 28.5973 7.23356 25.7667 4.40993C22.936 1.5863 19.0969 0 15.0937 0C11.0906 0 7.25149 1.5863 4.42086 4.40993C1.59023 7.23356 0 11.0632 0 15.0564C0 19.0496 1.59023 22.8793 4.42086 25.703C7.25149 28.5266 11.0906 30.1129 15.0937 30.1129Z" fill="#1A222D"/>
<path d="M15.0938 39.2168C18.9646 39.2168 22.6764 40.7506 25.4131 43.4805C28.1498 46.2104 29.6875 49.9132 29.6875 53.7734C29.6874 57.6334 28.1497 61.3356 25.4131 64.0654C22.6764 66.7953 18.9646 68.3291 15.0938 68.3291C11.223 68.3291 7.51117 66.7953 4.77441 64.0654C2.03778 61.3356 0.500101 57.6334 0.5 53.7734C0.5 49.9132 2.03769 46.2104 4.77441 43.4805C7.51116 40.7506 11.223 39.2168 15.0938 39.2168ZM53.9062 39.2168C57.777 39.2168 61.4889 40.7506 64.2256 43.4805C66.9623 46.2104 68.5 49.9132 68.5 53.7734C68.4999 57.6334 66.9622 61.3356 64.2256 64.0654C61.4889 66.7953 57.777 68.3291 53.9062 68.3291C50.0354 68.3291 46.3236 66.7953 43.5869 64.0654C40.8503 61.3356 39.3126 57.6334 39.3125 53.7734C39.3125 49.9132 40.8502 46.2104 43.5869 43.4805C46.3236 40.7506 50.0354 39.2168 53.9062 39.2168ZM15.0938 42.5186C12.1023 42.5186 9.23293 43.704 7.11719 45.8145C5.00144 47.9251 3.8125 50.7881 3.8125 53.7734C3.8126 56.7585 5.00156 59.6209 7.11719 61.7314C9.23293 63.8419 12.1023 65.0273 15.0938 65.0273C18.0853 65.0273 20.9545 63.8419 23.0703 61.7314C25.1859 59.6209 26.3749 56.7585 26.375 53.7734C26.375 50.7881 25.186 47.9251 23.0703 45.8145C20.9545 43.704 18.0853 42.5186 15.0938 42.5186ZM53.9062 42.5186C50.9147 42.5186 48.0455 43.704 45.9297 45.8145C43.814 47.9251 42.625 50.7881 42.625 53.7734C42.6251 56.7585 43.8141 59.6209 45.9297 61.7314C48.0455 63.8419 50.9147 65.0273 53.9062 65.0273C56.8977 65.0273 59.767 63.8419 61.8828 61.7314C63.9984 59.6209 65.1874 56.7585 65.1875 53.7734C65.1875 50.7881 63.9985 47.9251 61.8828 45.8145C59.767 43.704 56.8977 42.5186 53.9062 42.5186ZM15.0938 0.5C18.9645 0.500019 22.6764 2.03391 25.4131 4.76367C28.1498 7.49363 29.6875 11.1965 29.6875 15.0566C29.6874 18.9168 28.1497 22.6188 25.4131 25.3486C22.6764 28.0786 18.9647 29.6133 15.0938 29.6133C11.2229 29.6133 7.51118 28.0786 4.77441 25.3486C2.03776 22.6188 0.500074 18.9168 0.5 15.0566C0.5 11.1965 2.03769 7.49363 4.77441 4.76367C7.51115 2.03388 11.2231 0.5 15.0938 0.5ZM53.9062 0.5C57.7769 0.5 61.4889 2.03389 64.2256 4.76367C66.9623 7.49363 68.5 11.1965 68.5 15.0566C68.4999 18.9168 66.9622 22.6188 64.2256 25.3486C61.4888 28.0786 57.777 29.6133 53.9062 29.6133C50.0353 29.6133 46.3236 28.0786 43.5869 25.3486C40.8503 22.6188 39.3126 18.9168 39.3125 15.0566C39.3125 11.1965 40.8502 7.49363 43.5869 4.76367C46.3236 2.03391 50.0355 0.500018 53.9062 0.5ZM53.9062 3.80176C50.9147 3.80178 48.0455 4.98724 45.9297 7.09766C43.8139 9.20821 42.625 12.0714 42.625 15.0566C42.6251 18.0418 43.8141 20.9041 45.9297 23.0146V23.0156C48.0455 25.1259 50.9148 26.3105 53.9062 26.3105C56.8976 26.3105 59.767 25.1259 61.8828 23.0156V23.0146C63.9984 20.9041 65.1874 18.0418 65.1875 15.0566C65.1875 12.0714 63.9986 9.20821 61.8828 7.09766C59.767 4.98723 56.8977 3.80176 53.9062 3.80176ZM15.0938 8.10352C14.179 8.10352 13.273 8.28359 12.4277 8.63281C11.5824 8.98207 10.8141 9.49419 10.167 10.1396C9.51982 10.7852 9.00558 11.5519 8.65527 12.3955C8.30503 13.2391 8.125 14.1436 8.125 15.0566C8.12504 15.9698 8.30497 16.8743 8.65527 17.7178C9.00557 18.5614 9.51982 19.3282 10.167 19.9736V19.9727C10.8142 20.6183 11.5823 21.1312 12.4277 21.4805C13.273 21.8296 14.179 22.0088 15.0938 22.0088C16.9415 22.0088 18.7126 21.2762 20.0195 19.9727L20.0205 19.9736C21.3276 18.6699 22.0624 16.9011 22.0625 15.0566C22.0625 13.3276 21.4166 11.665 20.2588 10.3896L20.0205 10.1396C18.7136 8.83603 16.9416 8.10354 15.0938 8.10352Z" stroke="black" stroke-opacity="0.1"/>
</svg>
